<?xml version="1.0" standalone="no"?><!DOCTYPE svg PUBLIC "-//W3C//DTD SVG 1.1//EN" "http://www.w3.org/Graphics/SVG/1.1/DTD/svg11.dtd"><svg t="1720622056516" class="icon" viewBox="0 0 1024 1024" version="1.1" xmlns="http://www.w3.org/2000/svg" p-id="6745" xmlns:xlink="http://www.w3.org/1999/xlink" width="128" height="128"><path d="M643.584 0.512c72.704 91.264 96.192 200.448 77.568 318.4-2.112 12.8-14.4 24.832-23.488 35.776-25.92 30.336-55.488 58.24-78.72 90.24-14.912 20.48-23.168 46.08-30.272 70.4-2.88 9.6 5.184 21.952 8.192 33.344 11.392-3.84 26.176-4.928 33.6-12.16 24.448-24.192 46.592-50.432 68.992-76.352 11.712-13.44 21.952-28.032 37.184-47.68 2.88 68.8-8.448 122.368-66.432 162.56-47.36 32.768-48.96 57.984-16 94.144-46.08 37.12-35.008 90.496-45.632 138.048-10.88 53.312-24.832 105.984-41.792 157.888-7.616 21.76-30.208 39.104-46.4 58.88l-29.056-43.2c45.888-33.728-10.56-44.736-28.608-72.384l16.96 7.68c10.88 4.672 29.632 14.912 31.04 13.44 11.2-14.208 25.216-30.144 26.56-46.4 2.24-27.2-10.176-55.936-5.504-82.368a387.456 387.456 0 0 1 36.48-109.632c16.64-32.064 23.424-60.8 0.576-90.496-52.48-68.224-37.696-133.632 7.552-198.208 13.824-19.392 26.944-40.832 45.824-55.168 64.896-49.6 62.208-117.568 56.192-183.232-5.12-56.64-23.36-112.256-34.752-163.52zM391.872 561.28c-0.64-85.952-44.288-150.784-106.944-205.44-32.064-27.968-27.328-63.744-28.672-96.32-3.392-96.96 24.32-186.24 84.288-259.52-10.88 46.72-27.2 98.56-33.536 151.168-4.928 41.28 0.64 84.096 5.44 125.888 3.2 15.936 11.328 30.72 23.296 42.56 46.592 49.728 91.136 100.224 105.92 167.04 9.984 45.056-1.728 63.36-49.792 74.624z m-56.96-2.176c-39.104-21.632-68.288-51.456-67.712-99.584 12.16 16 25.088 31.616 36.352 48.256 11.2 16.64 20.864 34.304 31.36 51.456v-0.128z m26.24 108.48c52.544-6.72 68.736 10.048 75.136 67.584l-75.136-67.584z" fill="#000000" p-id="6746"></path></svg>