<?xml version="1.0" standalone="no"?><!DOCTYPE svg PUBLIC "-//W3C//DTD SVG 1.1//EN" "http://www.w3.org/Graphics/SVG/1.1/DTD/svg11.dtd"><svg t="1720622165680" class="icon" viewBox="0 0 1088 1024" version="1.1" xmlns="http://www.w3.org/2000/svg" p-id="8876" xmlns:xlink="http://www.w3.org/1999/xlink" width="136" height="128"><path d="M371.776 949.12c0-32 25.6-57.6 57.6-57.6s57.6 25.6 57.6 57.6-25.6 57.6-57.6 57.6-57.6-25.6-57.6-57.6z m236.8 0c0-32 25.6-57.6 57.6-57.6s57.6 25.6 57.6 57.6-25.6 57.6-57.6 57.6-57.6-25.6-57.6-57.6z" fill="#168DD7" p-id="8877"></path><path d="M960.576 33.92h-140.8c-51.2 0-70.4 12.8-83.2 25.6-76.8 64-160 185.6-192 230.4-32-44.8-115.2-172.8-192-230.4-12.8-12.8-32-25.6-83.2-25.6h-140.8c-64 0-108.8 51.2-108.8 204.8v563.2c0 102.4 38.4 198.4 83.2 198.4h179.2c76.8 0-64-236.8-64-480v-70.4c0-76.8 19.2-153.6 57.6-121.6 140.8 115.2 134.4 454.4 204.8 454.4h115.2c70.4 0 64-339.2 204.8-454.4 38.4-32 57.6 38.4 57.6 121.6v70.4c0 243.2-147.2 480-64 480h179.2c51.2 0 83.2-96 83.2-198.4v-563.2c12.8-153.6-32-204.8-96-204.8z" fill="#168DD7" p-id="8878"></path></svg>