<?xml version="1.0" standalone="no"?><!DOCTYPE svg PUBLIC "-//W3C//DTD SVG 1.1//EN" "http://www.w3.org/Graphics/SVG/1.1/DTD/svg11.dtd"><svg t="1721366613901" class="icon" viewBox="0 0 1302 1024" version="1.1" xmlns="http://www.w3.org/2000/svg" p-id="4258" xmlns:xlink="http://www.w3.org/1999/xlink" width="254.296875" height="200"><path d="M1003.559369 407.380967c1.163015 8.373709 2.139948 16.79394 2.791236 25.307211 0.465206 7.908503 0.74433 15.863527 0.74433 23.818551v1.116495c-0.093041 34.657853-5.303349 66.52447-14.235306 92.296887a83.737095 83.737095 0 0 1-7.210695 10.234534v-0.232603a402.868468 402.868468 0 0 0-12.653605-181.430373l0.04652 0.093041a405.147978 405.147978 0 0 0-31.959657-76.247277h0.139561l-0.139561-0.279123c-74.386453-136.770588-224.694538-230.18397-398.216408-230.18397-247.396595 0-447.807376 189.897123-447.807375 424.174906 0 234.231263 200.503822 424.221427 447.760855 424.221428h0.093041c5.163788 0 10.420616 0 15.677445-0.279124 15.072677-0.418685 30.098834-1.581701 45.031949-3.582087 47.916227-10.69974 83.876657-42.84548 87.737867-81.690188l0.186083 0.232603a79.968926 79.968926 0 0 1 15.3518 55.871251c15.119198-3.86121 29.587107-9.815848 43.031563-17.770873 6.047679-3.721649 11.816235-7.6759 17.445228-11.909276l0.558247-0.465206 1.860825-1.395618c3.628607-2.744716 7.536339-5.768555 11.862755-9.629766 5.163788-5.024226 12.653605-12.560564 17.58479-18.422161l3.163401-4.140334 0.279124-0.465206v-0.046521a115.836315 115.836315 0 0 0 11.304508-20.236464c2.744716-6.978091 5.861597-19.538655 4.047293-36.146513a22.93466 22.93466 0 0 0-0.372165-1.069974 20.236465 20.236465 0 0 0-20.003862-18.608243h-82.713641a29.912751 29.912751 0 0 1 2.977319-7.62938c12.141879-22.376413 54.196509-39.03079 104.252683-39.03079 34.843936 0 65.73362 8.094586 85.597919 20.469067 3.954252 2.465592 7.582859 5.303349 10.885822 8.606313l0.279124 0.279124c1.628221 0.465206 3.302963 0.883892 5.024226 1.163015 1.163015 0.232603 2.093427 0.232603 3.07036 0.232603 17.445228-0.930412 34.983497-0.930412 52.428725 0l-0.279123 1.395618-0.046521 0.465206c-1.674742 9.583245-3.86121 19.073449-6.559406 28.377571-21.213397 72.990834-68.664418 118.022783-84.853589 133.235022a333.366679 333.366679 0 0 1-35.727827 28.842778c-77.96854 55.545606-161.33347 76.759004-187.803696 82.946244-23.353345 5.442911-160.868264 34.983497-303.407407-15.258759C179.679395 930.784331-5.00742 741.305893 0.249409 502.003884c4.977705-223.764126 173.521869-361.232524 209.668382-389.191409C398.651899-32.797029 612.693218 1.814304 647.444112 7.908503c43.124604 9.815848 154.681023 40.51945 244.558838 140.864402 20.701671 23.120742 80.806297 91.78516 103.368791 198.03823 4.233375 19.91082 6.978091 40.007723 8.141107 60.290708v0.232603zM1031.378692 548.757096c-2.139948-1.116495-0.325644-6.838529 3.81469-19.817779 3.116881-9.90889 7.582859-24.097675 12.653606-43.636331 0 0 13.537497-52.428726 33.587879-96.762865l0.093041-0.232603a33.960044 33.960044 0 0 1 15.165718-17.119584l0.046521-0.046521c2.093427-1.023453 11.257987-5.582473 18.515202-1.395618 7.443297 4.000772 8.327189 14.235306 8.792395 20.003861V390.77311c0.651289 9.443683-1.395618 18.840846-5.908117 27.121514-30.703601 58.89509-36.751281 67.454882-36.751281 67.454883-35.2161 54.336071-46.66017 65.314934-50.009654 63.454109zM1253.979803 413.335605l0.465206 0.279123c6.280282 3.721649 13.863141 8.234148 15.770486 16.421775 4.745102 20.701671-33.169194 47.4045-61.035038 59.081173a200.503822 200.503822 0 0 1-11.676672 4.279896l-0.279124 0.093041a142.2135 142.2135 0 0 1-30.796643 7.164174c-4.931184 0.651289-7.908503 0.976933-8.048065 2.32603-0.139562 0.976933 1.53518 1.767783 4.186855 2.930798a34.099606 34.099606 0 0 1 14.700512 10.839302l0.232603 0.465206c1.628221 2.32603 4.977705 7.303736 4.279896 12.886209-0.465206 4.512499-4.047293 11.164946-27.447159 21.027315-13.02577 5.582473-26.516747 9.862369-40.472929 12.560564-32.703988 6.187241-72.944314 11.025384-73.40952 7.908503-0.139562-0.74433 1.721263-1.395618 6.047679-2.930798 4.465978-1.581701 11.537111-4.093814 21.864686-8.513271 14.095744-5.908117 27.447159-13.397935 39.868161-22.329892l0.883892-0.558248c8.373709-5.954638 13.351415-10.001931 14.747033-11.211466 3.81469-3.116881 9.071519-7.861983 13.351414-14.281827a17.212625 17.212625 0 0 0 3.116881-6.698968 13.397935 13.397935 0 0 0 0.093041-5.117266 8.466751 8.466751 0 0 1 0.093041-3.907732c1.395618-3.489046 5.256829-4.977705 7.257215-5.675514l0.186083-0.04652c15.026156-6.047679 29.494066-13.537497 43.078083-22.422934 9.024998-5.954638 15.770486-10.69974 18.37564-19.538655 2.605154-8.838916 0.930412-21.213397-4.977705-23.585949a14.467909 14.467909 0 0 0-1.860824-0.511726c-1.721263-0.372165-3.582087-0.837371-4.652061-2.326031-1.116495-1.953866-0.232603-4.279896 0-4.977705 2.930798-7.908503 32.936591-16.980022 56.057333-3.628607zM1219.926718 594.486854c-4.326417-11.211467-20.562109-14.095744-32.192261-15.956569-10.978864-1.953866-19.306052-1.209536-32.192261 0a267.819142 267.819142 0 0 0-37.867775 6.419844l-2.326031 0.511727c-29.168421 7.117653-47.45102 11.49059-47.45102 17.119583 0 5.489432 27.354118 10.001931 82.387997 18.794326 36.937363 6.047679 53.126535 7.62938 63.174986-2.605154 5.954638-6.419844 9.536725-16.468295 6.466365-24.283757z" fill="#2D73C9" p-id="4259"></path><path d="M1192.991286 605.465717c-2.884278 6.187241-16.282213 5.722035-42.426795 3.535566l-1.721263-0.139561c-36.053471-3.256443-54.243029-4.884664-54.243029-7.722421 0-1.953866 10.001931-3.535566 30.145354-6.698968l5.582473-0.930412 1.442139-0.186083c3.349484-0.465206 11.537111-1.721263 21.864686-2.419071 7.164174-0.465206 12.653605-0.74433 19.073449-0.279124 15.026156 1.209536 17.863914 5.024226 18.608244 6.187241 1.674742 2.186469 3.07036 5.768555 1.674742 8.652833zM396.558471 331.226731a40.752053 40.752053 0 0 1-0.558247-3.396004l6.047679 10.69974-0.093041-4.512499-5.954638-6.187241-6.931571-91.087351a61.128079 61.128079 0 0 1 56.987746-65.035811l46.520608-3.11688c5.117267-0.372165 10.234534-0.046521 15.30528 0.883891a120.162731 120.162731 0 0 1 94.390314 38.426023 224.554976 224.554976 0 0 1 228.416187 159.658727l5.489432 36.286075 0.093041 0.511726 0.139562-0.04652 1.209536 7.722421 0.232603 0.604768 2.139948 13.7701 20.003861 129.420332 0.465206 3.721649 2.139948 13.490976 0.976933 6.88505v2.698195c2.605154 18.701285 18.608243 32.564426 37.44909 32.564426a37.867775 37.867775 0 0 0 32.750508-19.213011l0.325644-0.79085 2.651675-6.187241 4.279896-10.048452a7.768942 7.768942 0 0 1 1.860824-2.605154 8.141106 8.141106 0 0 1 8.838916-1.860824l2.605154 1.163015v0.279124l12.327961 5.117267 17.491749 7.210694a1.302577 1.302577 0 0 0 0.232603 0.232603l0.139562 0.093041h0.186082l0.139562 0.139562 0.232603 0.325644a7.768942 7.768942 0 0 1 2.698195 9.257601l-5.39639 12.793168-0.139562 0.558247v0.232603c-1.860824 6.88505-4.512499 13.351415-8.094586 19.538656l-0.186082 0.279123v0.046521l-0.093042 0.139562a0.79085 0.79085 0 0 1-0.232603 0.232603l-0.325644 0.604768-0.139562 0.232603-0.093041 0.139562-0.604768 0.976932c0 0.093041-0.093041 0.139562-0.139562 0.232603a0.279124 0.279124 0 0 0-0.093041 0.232603c-16.189172 25.493293-46.008882 43.357207-76.247277 43.357207h-20.236464a82.387997 82.387997 0 0 1-78.75939-58.988131l-0.418686-1.302577a23.911593 23.911593 0 0 1-0.604768-2.27951l-0.139562-0.79085h-0.04652l0.604768 2.791236a26.284144 26.284144 0 0 1-0.604768-2.232989l-0.139562-0.604768h-0.232603a33.587879 33.587879 0 0 1-0.930412-4.745102l-4.791623-21.027315-0.232603-0.930412a24.562881 24.562881 0 0 1-0.930412-4.047293l-0.976933-4.512499v2.605154a3.349484 3.349484 0 0 1-0.139562-1.721262v-0.372165a4.279896 4.279896 0 0 1-0.139561-0.790851v-1.395618l-0.186083-0.930412-0.279124-1.209536v-0.697809l-0.093041-0.511727-0.093041 0.186083-0.279124 0.325644H786.308128v0.139562h-0.139562c-0.139562 0.093041-0.232603 0.139562-0.232603 0.325644l-0.372165-1.860824-0.093041-0.74433-0.232603-1.209536a59.220734 59.220734 0 0 0-26.842391-37.728213 59.406817 59.406817 0 0 0-29.912751-8.001545c-1.860824 0-3.81469 0-5.722035 0.186083-0.930412 0-1.860824 0-2.791237 0.279123a78.154622 78.154622 0 0 0-8.373709 1.860825l-2.186469 0.744329c-2.651675 0.930412-5.210308 2.000386-7.722421 3.256443l-1.53518 0.79085-0.976933 0.604768-0.930412 0.558248-2.186468 1.488659c-0.186082 0-0.418685 0.186082-0.651289 0.418686a5.256829 5.256829 0 0 0-1.953865 1.256056 12.327961 12.327961 0 0 0-1.023454 0.79085l-1.069974 0.837371a12.839688 12.839688 0 0 0-2.186468 1.674742c-0.697809 0.465206-1.395618 1.163015-1.907345 1.674742l-1.628222 1.628221-0.604768 0.74433a6.233762 6.233762 0 0 1-0.604767 0.74433c0 0.186082-0.186082 0.465206-0.372165 0.604768l-0.139562 0.139562a5.117267 5.117267 0 0 0-0.930412 1.163015 7.582859 7.582859 0 0 0-0.74433 0.837371 13.304894 13.304894 0 0 0-3.721649 5.024225 4.140334 4.140334 0 0 1-0.79085 1.256057 9.629766 9.629766 0 0 1-1.163015 2.139948l-0.511727 0.837371-0.093041 0.232603a6.233762 6.233762 0 0 1-0.604768 1.069974 0.837371 0.837371 0 0 1-0.139562 0.372165l-0.093041 0.372165a8.652833 8.652833 0 0 1-0.465206 1.069974c-0.186082 0.372165-0.418685 0.697809-0.465206 1.069973a9.024998 9.024998 0 0 1-0.465206 1.302578 9.024998 9.024998 0 0 0-0.511727 1.302577v0.232603l-0.325644 1.209535-0.418686 1.209536v0.186083l-0.325644 1.395618a41.449862 41.449862 0 0 0-1.069974 3.81469v0.325644a12.327961 12.327961 0 0 0-0.232603 1.302577l-0.232603 1.256057a11.537111 11.537111 0 0 0-0.465206 2.884277l-0.139562 1.395618a11.44407 11.44407 0 0 0-0.139562 1.442139l-0.04652 0.279124-0.046521 0.232603-0.046521 0.232603c-0.093041 0.465206-0.093041 0.930412-0.093041 1.395618v102.4849h-0.697809v36.983884a36.70476 36.70476 0 0 1-36.472157 36.425636h-92.948175a36.611719 36.611719 0 0 1-36.472157-36.425636v-46.194964a59.360296 59.360296 0 0 0-118.208866 7.536339v1.721262h-0.697809v37.216487a36.286074 36.286074 0 0 1-36.472157 36.425636H254.717137a36.611719 36.611719 0 0 1-36.425637-36.518678v-226.090156c0-1.628221 0.093041-3.256443 0.279124-4.745102A158.914398 158.914398 0 0 1 356.457707 339.228276c0 1.674742 0.232603 3.582087 0.465206 5.256829 2.186469 12.467523 5.34987 24.330278 8.513271 36.286074 1.907345 7.210694 3.81469 14.467909 5.582473 21.864686 3.442525 14.886595 8.001545 27.5402 13.025771 41.403341l0.139561 0.465206 3.442526 9.583246c6.419844 18.236078 13.118812 31.35489 19.538655 43.868933l2.419072 4.745102c4.745102 9.90889 10.094972 19.399094 16.235692 28.424092l0.511727 0.883892 0.837371 1.209535 0.279123 0.232604c1.721263 2.651675 3.582087 4.977705 5.489432 7.443297l1.302577 1.581701 3.256443 3.442525c7.582859 7.350256 22.14381 19.724738 44.566742 26.609787 8.094586 2.512113 16.189172 2.791236 24.330279 2.093428l87.086578-42.566357-88.993923-92.017763c-5.722035 17.724352-14.56095 30.284916-25.586335 34.890456l30.796643 54.661715a24.376799 24.376799 0 0 1-13.304894 3.163401 33.960044 33.960044 0 0 1-14.886595-4.65206l-0.418685 0.139561a60.197667 60.197667 0 0 1-19.538656-17.352187c-17.026543-19.724738-32.89007-51.358752-43.58981-89.133485l-0.093041-0.325644-0.651289-2.326031-0.697809-1.860824-0.465206-0.558247-0.651288-2.698196a240.13938 240.13938 0 0 1-9.629766-37.821254 349.090645 349.090645 0 0 1-9.071519-43.822413l-0.139562-1.163015h-0.04652z" fill="#2D73C9" p-id="4260"></path><path d="M704.897063 393.750429a36.844322 36.844322 0 0 1-5.256829-19.445615 37.867775 37.867775 0 0 1 73.176917-14.095744 37.216487 37.216487 0 0 1 2.791237 14.560951v1.488659a38.007337 38.007337 0 0 0-59.406817-6.978091 38.332981 38.332981 0 0 0-11.304508 24.46984z" fill="#2D73C9" p-id="4261"></path></svg>