<?xml version="1.0" standalone="no"?><!DOCTYPE svg PUBLIC "-//W3C//DTD SVG 1.1//EN" "http://www.w3.org/Graphics/SVG/1.1/DTD/svg11.dtd"><svg t="1721015670323" class="icon" viewBox="0 0 1024 1024" version="1.1" xmlns="http://www.w3.org/2000/svg" p-id="4290" xmlns:xlink="http://www.w3.org/1999/xlink" width="200" height="200"><path d="M374.272 34.304c-9.216 8.192-44.544 66.56-93.696 155.136-8.704 15.36-22.528 37.888-30.72 50.176L235.008 261.12l-61.952-1.536c-71.168-2.048-71.168-1.536-93.696 42.496-7.168 14.336-22.528 40.96-33.28 59.392-11.264 17.92-20.48 37.376-20.48 43.52 0 5.632 11.264 29.184 24.576 52.224 48.128 81.408 75.776 129.024 87.552 152.064l12.288 23.552-17.92 32.768c-10.24 18.432-23.552 43.008-30.208 55.296l-12.288 21.504 12.288 22.016c6.656 11.776 18.944 34.304 27.648 49.664 17.408 32.768 34.304 57.344 41.984 62.464 2.56 2.048 62.976 4.096 133.12 4.096h128l25.6 44.032c14.336 24.576 27.136 48.64 29.184 53.76 2.048 5.632 9.216 11.776 15.36 14.336 14.848 5.632 158.72 0.512 166.4-5.632 3.584-3.072 17.408-25.088 30.72-49.152 26.624-47.616 50.688-90.112 78.336-138.752l17.92-31.232h59.392c55.296 0 59.904-1.024 70.144-11.776 6.144-6.656 11.264-14.336 11.264-17.92 0-3.072 8.192-19.456 17.92-36.352 11.776-19.456 16.896-33.792 14.336-39.936-1.536-5.12-1.536-7.68 1.024-5.632 5.12 4.608 17.92-8.192 17.92-18.432 0-4.608-2.56-8.192-5.12-8.192-3.584 0-3.584-3.584 0.512-10.752 3.584-6.656 3.584-9.728 0.512-7.68-3.072 1.536-6.656-1.536-8.704-7.168-1.536-5.632-6.656-10.24-10.24-10.24-6.144 0-6.144 2.56 0.512 17.92 3.584 9.728 7.168 18.944 7.168 20.48 0 1.536-28.672 2.56-64 2.56h-63.488l-17.408-27.136c-9.216-14.336-24.576-40.96-34.304-58.88l-16.896-32.256-14.848 23.552c-8.192 13.312-16.896 29.184-19.968 34.816-2.56 6.144-14.848 27.136-27.648 47.104-12.288 19.456-23.04 37.888-23.04 40.96 0 2.56-10.752 20.992-23.04 40.96-12.8 19.456-25.088 40.96-28.16 47.616-2.56 6.144-16.896 31.744-31.232 56.32-26.112 44.032-51.2 87.552-78.848 136.192-16.384 28.672-18.944 27.648-42.496-17.408-8.192-15.36-20.48-37.888-27.136-49.664l-12.288-22.016H316.416c-72.704 0-132.096-1.024-132.096-2.56s10.24-19.456 22.528-39.936c12.288-19.968 23.552-41.984 25.6-47.616 7.168-23.552 17.92-27.136 83.456-28.672l61.952-1.536-40.96-71.68c-23.04-39.424-53.76-93.696-69.632-120.32-15.36-26.624-32.768-57.856-38.912-69.12-6.144-11.264-29.696-51.712-51.712-89.6C131.072 305.664 122.88 290.816 122.88 285.696c0-2.048 30.208-4.608 67.584-5.12l67.584-1.536 29.696-51.2c16.384-28.16 33.792-59.392 38.912-69.12 8.192-16.384 45.056-79.872 56.32-96.256 3.584-5.12 9.728 0.512 23.04 23.04 27.648 46.08 44.544 77.312 44.544 82.944 0 4.096-25.088 49.664-59.904 109.568-3.072 4.608 502.784 3.072 507.392-1.536 5.12-5.632-19.968-51.2-28.16-51.2-9.216 0-17.408-28.672-12.288-41.984 2.048-4.608-0.512-11.264-4.608-15.872-4.096-4.096-6.144-9.216-4.096-11.264 2.048-2.56 0.512-2.56-3.584 0-4.096 2.048-8.192 1.024-10.752-2.56-4.096-6.656-105.984-14.336-197.12-15.36h-46.08l-30.72-53.248c-18.944-32.768-34.816-54.784-40.96-56.32-5.632-1.536-38.4-3.072-72.192-3.072-52.224 0-64 1.536-73.216 8.704z" p-id="4291" data-spm-anchor-id="a313x.search_index.0.i0.76cc3a81AZK8Hz" class="selected" fill="#6a09ab"></path><path d="M893.44 323.584c-2.048 8.192-6.144 12.8-9.216 10.752-2.56-1.536-3.584-1.024-2.048 2.048 1.536 2.56-1.536 8.704-7.168 13.824-5.632 4.608-12.8 15.36-15.872 23.552-2.56 8.704-7.168 15.36-9.728 15.36-9.728 0-3.584 19.456 17.92 54.784 12.288 20.48 23.552 35.328 25.6 33.28 2.048-2.048 3.072-1.024 2.048 1.536-2.048 7.168 16.896 48.64 22.528 48.64 2.048 0 4.096 3.072 4.096 6.656 0 4.096 4.608 11.264 10.24 16.384s8.704 11.264 7.168 13.312c-1.536 2.56 0 4.608 3.072 4.608s4.096 2.048 2.56 5.12c-1.536 2.56-0.512 5.12 2.56 5.12s4.096 2.048 2.56 5.12c-1.536 2.56 1.024 5.12 5.632 5.12 5.12 0 7.168-1.536 5.632-3.584-2.048-1.536-1.024-6.144 2.048-10.24 3.584-4.096 4.096-6.656 0.512-6.656-2.56 0-7.68-7.168-10.752-15.872-3.584-10.24-7.68-14.336-11.264-11.776-4.608 2.56-5.12 1.024-3.072-5.12 2.048-5.632-0.512-14.336-6.656-22.016-5.632-7.168-10.24-16.384-10.24-20.48 0-4.608-3.072-6.656-7.168-5.12-4.608 2.048-6.656 0-6.144-5.632 1.024-4.608-4.608-18.944-11.776-31.744-29.184-50.176-28.672-47.104-13.824-74.752 7.168-13.824 13.312-27.648 13.312-31.232 0-3.072 2.048-6.656 4.096-7.68 2.56-1.024 2.56-7.168 1.024-14.336l-3.584-12.8-4.096 13.824zM362.496 431.104c2.56 3.584 11.776 19.456 19.968 34.816 8.704 15.36 33.28 59.392 55.296 97.28 22.016 37.888 47.104 82.432 55.808 98.304 8.704 16.384 17.408 29.696 18.944 29.696 1.536 0 5.632-6.144 9.216-14.336 5.632-12.8 36.864-67.072 89.6-157.184 11.264-19.968 24.064-42.496 27.136-50.176 3.584-8.192 11.264-21.504 16.896-29.696l10.752-14.848H511.488c-122.88 0-153.088 1.536-148.992 6.144z" p-id="4292" data-spm-anchor-id="a313x.search_index.0.i3.76cc3a81AZK8Hz" class="selected" fill="#6a09ab"></path></svg>